<svg id="Layer_1" data-name="Layer 1" xmlns="http://www.w3.org/2000/svg" viewBox="0 0 184.15 30">
  <title>logo-nav</title>
  <g>
    <g>
      <path d="M41.5,47.16a9.48,9.48,0,0,1-4.65-1.1,7.43,7.43,0,0,1-3.05-3.19,10.67,10.67,0,0,1-1-4.88,10.69,10.69,0,0,1,1-4.87,7.42,7.42,0,0,1,3.06-3.2,9.42,9.42,0,0,1,4.63-1.1,9.36,9.36,0,0,1,4.92,1.23,6,6,0,0,1,2.74,3.77l0.11,0.4-4.75,1.92-0.12-.53a3.45,3.45,0,0,0-.94-1.89,2.78,2.78,0,0,0-1.8-.51,3,3,0,0,0-2.52,1.16A5.94,5.94,0,0,0,38.18,38a6.12,6.12,0,0,0,.89,3.62,2.85,2.85,0,0,0,2.47,1.15,3,3,0,0,0,1.93-.56,3.12,3.12,0,0,0,1-1.83l0.1-.49,4.92,1.39-0.13.45a6.91,6.91,0,0,1-2.86,4.09h0A9,9,0,0,1,41.5,47.16Zm0-17.39a8.5,8.5,0,0,0-4.17,1,6.49,6.49,0,0,0-2.67,2.81A9.77,9.77,0,0,0,33.68,38a9.75,9.75,0,0,0,.95,4.45,6.51,6.51,0,0,0,2.67,2.79,8.56,8.56,0,0,0,4.2,1A8.06,8.06,0,0,0,46,45h0a5.84,5.84,0,0,0,2.32-3.11l-3.06-.86a3.73,3.73,0,0,1-1.16,1.88,3.89,3.89,0,0,1-2.52.77,3.78,3.78,0,0,1-3.23-1.53A7,7,0,0,1,37.25,38a6.82,6.82,0,0,1,1.12-4.18,3.88,3.88,0,0,1,3.26-1.53A3.67,3.67,0,0,1,44,33a3.79,3.79,0,0,1,1.12,1.88l3-1.2a5,5,0,0,0-2.2-2.81A8.44,8.44,0,0,0,41.47,29.77Z" transform="translate(-25 -23)"/>
      <path d="M68.37,46.91H62.84L61.68,43.1H56.55l-1.18,3.81H49.94L56.2,29.09h5.93ZM63.53,46H67L61.47,30h-4.6L51.27,46h3.41l1.18-3.81h6.53Zm-1.79-5.86H56.48L58,35.43l0.78-3H59.5l0.84,3Zm-4-.94h2.72l-1-3.43-0.3-1.09-0.28,1Z" transform="translate(-25 -23)"/>
      <path d="M76,47.16a7.52,7.52,0,0,1-5.11-1.55,5.42,5.42,0,0,1-1.78-4.26,9.39,9.39,0,0,1,.16-1.67l0.06-.32,5.3-.94-0.08.63a12.25,12.25,0,0,0-.12,1.52,2.65,2.65,0,0,0,.43,1.72,1.69,1.69,0,0,0,1.35.47,1.67,1.67,0,0,0,1.54-.68,5.07,5.07,0,0,0,.5-2.61V29.09H83.6V39.94a7,7,0,0,1-2,5.31A7.77,7.77,0,0,1,76,47.16Zm-5.86-7a8.08,8.08,0,0,0-.09,1.18,4.46,4.46,0,0,0,1.46,3.56A6.64,6.64,0,0,0,76,46.22,6.88,6.88,0,0,0,81,44.58a6.14,6.14,0,0,0,1.71-4.63V30H79.2v9.45a5.82,5.82,0,0,1-.65,3.12,2.56,2.56,0,0,1-2.33,1.11,2.6,2.6,0,0,1-2.05-.79,3.45,3.45,0,0,1-.67-2.34c0-.28,0-0.62.06-1Z" transform="translate(-25 -23)"/>
      <path d="M103.12,46.91H97.59L96.43,43.1H91.3l-1.18,3.81H84.69L91,29.09h5.93ZM98.28,46h3.52L96.22,30h-4.6L86,46h3.41l1.18-3.81h6.53ZM96.5,40.11H91.23l1.47-4.68,0.78-3h0.77l0.84,3Zm-4-.94h2.72l-1-3.43-0.3-1.09-0.28,1.05Z" transform="translate(-25 -23)"/>
      <path d="M120,37.31v9.13h-3.07l-0.13-2q-1.46,2.25-4.83,2.25a8.1,8.1,0,0,1-4.08-1,6.93,6.93,0,0,1-2.77-3,10.22,10.22,0,0,1-1-4.69,10,10,0,0,1,1-4.67,7.13,7.13,0,0,1,2.92-3,9.09,9.09,0,0,1,4.47-1,9.23,9.23,0,0,1,4.65,1,6.93,6.93,0,0,1,2.79,3.3l-4.07,1.61a3.12,3.12,0,0,0-1.15-1.87,3.47,3.47,0,0,0-2.1-.61,3.55,3.55,0,0,0-3,1.33,6.28,6.28,0,0,0-1,3.91q0,5.32,4.14,5.32a4.11,4.11,0,0,0,2.52-.72,2.43,2.43,0,0,0,1-2.07V40.28H112v-3H120Z" transform="translate(-25 -23)"/>
      <path d="M131.28,40.28h-2.63v6.16h-4.32V29.56h8.05a7.16,7.16,0,0,1,4.72,1.38,4.91,4.91,0,0,1,1.65,4A5.29,5.29,0,0,1,137.9,38a4.92,4.92,0,0,1-2.45,1.82l4.3,6.62h-4.86Zm-2.63-3.12h3a3.28,3.28,0,0,0,2-.51,2,2,0,0,0,.64-1.64,1.94,1.94,0,0,0-.64-1.61,3.28,3.28,0,0,0-2-.51h-3v4.27Z" transform="translate(-25 -23)"/>
      <path d="M152.63,42.63H146.8l-1.18,3.81H141.2l5.93-16.88h5.27l5.91,16.88h-4.53Zm-0.92-3-1.23-4-0.74-2.66h-0.05L149,35.57l-1.28,4.07h4Z" transform="translate(-25 -23)"/>
      <path d="M180.84,46.44h-3.89V38.69l0.13-5.19H177l-4.17,12.94H169.3L165.13,33.5h-0.05l0.13,5.19v7.75H161.3V29.56h6.26l2.66,8.59,0.95,3.58h0.05l1-3.55,2.63-8.62h6V46.44Z" transform="translate(-25 -23)"/>
      <path d="M195.26,42.63h-5.83l-1.18,3.81h-4.42l5.93-16.88H195l5.91,16.88h-4.53Zm-0.92-3-1.23-4-0.74-2.66h-0.05l-0.69,2.63-1.28,4.07h4Z" transform="translate(-25 -23)"/>
    </g>
    <polygon points="7.78 0 2.35 0 0 0 0 2.35 0 7.78 2.35 7.78 2.35 2.35 7.78 2.35 7.78 0"/>
    <polygon points="176.37 30 181.8 30 184.15 30 184.15 27.65 184.15 22.22 181.8 22.22 181.8 27.65 176.37 27.65 176.37 30"/>
  </g>
</svg>
